<?xml version="1.0" encoding="utf-8"?>
<!-- Generator: Adobe Illustrator 22.1.0, SVG Export Plug-In . SVG Version: 6.00 Build 0)  -->
<svg version="1.1" id="Слой_1" xmlns="http://www.w3.org/2000/svg" xmlns:xlink="http://www.w3.org/1999/xlink" x="0px" y="0px"
	 viewBox="0 0 107 67" style="enable-background:new 0 0 107 67;" xml:space="preserve">
<style type="text/css">
	.st0{fill:#B0A19C;}
</style>
<path class="st0" d="M47.3,38.5V28.5h-9.9V1.2H23.7L0.4,30.7v7.8h25.4v13.8h11.7V38.5H47.3z M12.9,28.5l12.9-16.6v16.6H12.9z
	 M60.3,66.7c2.4-4,4.5-9.6,4.5-16.1V38.2H51.3v14.1h6.4c-0.4,4.9-3,10.2-5.6,14.4H60.3z M66.2,18.9c0,9.9,6.3,16.8,15.7,16.8
	c3.2,0,5.4-0.9,7-1.9L74.2,52.3h13.2l10.7-13.6c5.2-6.7,8.4-11.8,8.4-19.9c0-10.7-7.8-18.5-20.2-18.5C73.9,0.3,66.2,8.2,66.2,18.9z
	 M78.1,18.9c0-4.6,3.1-8.1,8.3-8.1c5.1,0,8.3,3.5,8.3,8c0,4.8-3.3,8.2-8.3,8.2C81.2,27,78.1,23.6,78.1,18.9z"/>
</svg>
