<svg width="179" height="60" viewBox="0 0 179 60" fill="none" xmlns="http://www.w3.org/2000/svg">
<g clip-path="url(#clip0)">
<rect x="0.5" y="0.5" width="178" height="59" rx="7.5" stroke="black"/>
<path d="M37.4955 29.834C37.5123 28.5321 37.8581 27.2556 38.5008 26.1232C39.1435 24.9908 40.0622 24.0394 41.1714 23.3575C40.4668 22.3511 39.5372 21.523 38.4565 20.9387C37.3758 20.3545 36.1737 20.0303 34.9458 19.9918C32.3265 19.7169 29.7871 21.5592 28.4523 21.5592C27.0917 21.5592 25.0366 20.0191 22.8236 20.0647C21.3922 20.1109 19.9972 20.5272 18.7744 21.2729C17.5517 22.0186 16.543 23.0683 15.8466 24.3197C12.8299 29.5427 15.0801 37.2188 17.9698 41.4407C19.4157 43.5081 21.1054 45.8173 23.3164 45.7354C25.48 45.6457 26.2881 44.3558 28.8997 44.3558C31.4871 44.3558 32.2452 45.7354 34.5011 45.6834C36.8228 45.6457 38.2855 43.6069 39.6806 41.5199C40.7194 40.0469 41.5188 38.4188 42.0491 36.6961C40.7003 36.1256 39.5493 35.1707 38.7395 33.9504C37.9298 32.7302 37.4971 31.2985 37.4955 29.834Z" fill="black"/>
<path d="M33.236 17.2153C34.5018 15.6957 35.1255 13.7425 34.9745 11.7705C33.0405 11.9736 31.2541 12.8979 29.9712 14.3592C29.3439 15.0731 28.8634 15.9036 28.5573 16.8033C28.2512 17.703 28.1254 18.6542 28.1871 19.6025C29.1545 19.6124 30.1114 19.4028 30.986 18.9893C31.8605 18.5758 32.6298 17.9693 33.236 17.2153V17.2153Z" fill="black"/>
<path d="M63.4531 40.7095H56.353L54.6479 45.7442H51.6406L58.3657 27.1172H61.4902L68.2153 45.7442H65.1567L63.4531 40.7095ZM57.0884 38.3863H62.7164L59.942 30.2154H59.8643L57.0884 38.3863Z" fill="black"/>
<path d="M82.7378 38.9547C82.7378 43.1749 80.479 45.8863 77.0704 45.8863C76.2069 45.9315 75.3481 45.7326 74.5924 45.3124C73.8367 44.8921 73.2147 44.2676 72.7974 43.5103H72.7329V50.2369H69.9453V32.1636H72.6436V34.4224H72.6948C73.1313 33.6687 73.7639 33.0474 74.5253 32.6247C75.2867 32.2019 76.1486 31.9935 77.019 32.0215C80.4659 32.0216 82.7378 34.7462 82.7378 38.9547ZM79.8726 38.9547C79.8726 36.2052 78.4517 34.3975 76.2837 34.3975C74.1538 34.3975 72.7212 36.2432 72.7212 38.9547C72.7212 41.691 74.1538 43.5235 76.2837 43.5235C78.4517 43.5235 79.8725 41.7291 79.8725 38.9547H79.8726Z" fill="black"/>
<path d="M97.6878 38.9547C97.6878 43.1749 95.4282 45.8863 92.0196 45.8863C91.1561 45.9315 90.2973 45.7326 89.5416 45.3124C88.786 44.8921 88.1639 44.2676 87.7466 43.5103H87.6821V50.2369H84.8945V32.1636H87.5928V34.4224H87.644C88.0805 33.6687 88.7131 33.0474 89.4745 32.6247C90.236 32.2019 91.0978 31.9935 91.9682 32.0215C95.4151 32.0216 97.6878 34.7462 97.6878 38.9547ZM94.8218 38.9547C94.8218 36.2052 93.4009 34.3975 91.2329 34.3975C89.1031 34.3975 87.6705 36.2432 87.6705 38.9547C87.6705 41.691 89.1031 43.5235 91.2329 43.5235C93.4009 43.5235 94.8218 41.7291 94.8218 38.9547V38.9547Z" fill="black"/>
<path d="M107.565 40.5543C107.771 42.4015 109.566 43.6143 112.018 43.6143C114.367 43.6143 116.058 42.4014 116.058 40.7359C116.058 39.29 115.038 38.4244 112.624 37.8311L110.21 37.2495C106.79 36.4234 105.202 34.8237 105.202 32.228C105.202 29.0142 108.003 26.8066 111.978 26.8066C115.916 26.8066 118.614 29.0142 118.705 32.228H115.891C115.722 30.3691 114.186 29.2471 111.94 29.2471C109.694 29.2471 108.158 30.3823 108.158 32.0347C108.158 33.3516 109.139 34.1265 111.54 34.7197L113.592 35.2236C117.414 36.1274 119.001 37.6626 119.001 40.3872C119.001 43.872 116.226 46.0546 111.811 46.0546C107.68 46.0546 104.891 43.9233 104.711 40.5541L107.565 40.5543Z" fill="black"/>
<path d="M125.02 28.9497V32.1636H127.602V34.3711H125.02V41.8579C125.02 43.021 125.537 43.563 126.672 43.563C126.978 43.5576 127.285 43.5361 127.589 43.4985V45.6928C127.078 45.7882 126.56 45.8314 126.041 45.8217C123.291 45.8217 122.219 44.789 122.219 42.1552V34.3711H120.244V32.1636H122.219V28.9497H125.02Z" fill="black"/>
<path d="M129.096 38.9546C129.096 34.6816 131.612 31.9966 135.537 31.9966C139.474 31.9966 141.979 34.6816 141.979 38.9546C141.979 43.2393 139.487 45.9126 135.537 45.9126C131.587 45.9126 129.096 43.2392 129.096 38.9546ZM139.139 38.9546C139.139 36.0234 137.795 34.2935 135.537 34.2935C133.278 34.2935 131.935 36.0366 131.935 38.9546C131.935 41.8975 133.278 43.6143 135.537 43.6143C137.795 43.6143 139.139 41.8975 139.139 38.9546H139.139Z" fill="black"/>
<path d="M144.277 32.1635H146.936V34.475H147.001C147.18 33.7531 147.603 33.1151 148.198 32.6683C148.793 32.2214 149.524 31.993 150.267 32.0214C150.588 32.0203 150.909 32.0552 151.222 32.1254V34.7328C150.817 34.6089 150.394 34.552 149.97 34.5644C149.565 34.548 149.161 34.6194 148.786 34.7737C148.412 34.928 148.075 35.1616 147.799 35.4585C147.523 35.7553 147.314 36.1083 147.188 36.4933C147.061 36.8783 147.019 37.2862 147.065 37.6889V45.7441H144.277L144.277 32.1635Z" fill="black"/>
<path d="M164.075 41.7554C163.7 44.2207 161.299 45.9126 158.227 45.9126C154.276 45.9126 151.824 43.2656 151.824 39.019C151.824 34.7593 154.29 31.9966 158.11 31.9966C161.867 31.9966 164.23 34.5776 164.23 38.6953V39.6504H154.638V39.8188C154.594 40.3186 154.656 40.8221 154.822 41.2959C154.987 41.7697 155.251 42.2028 155.597 42.5667C155.942 42.9305 156.361 43.2166 156.826 43.4061C157.29 43.5955 157.79 43.684 158.292 43.6655C158.95 43.7272 159.611 43.5747 160.176 43.2305C160.741 42.8864 161.18 42.369 161.428 41.7554L164.075 41.7554ZM154.651 37.7021H161.441C161.466 37.2528 161.398 36.803 161.241 36.3812C161.084 35.9594 160.841 35.5746 160.528 35.251C160.216 34.9273 159.839 34.6718 159.423 34.5005C159.007 34.3291 158.56 34.2457 158.11 34.2554C157.656 34.2527 157.206 34.3399 156.786 34.512C156.366 34.6841 155.984 34.9377 155.662 35.2582C155.341 35.5786 155.086 35.9596 154.912 36.379C154.739 36.7985 154.65 37.2482 154.651 37.7022V37.7021Z" fill="black"/>
<path d="M55.1079 16.8801H56.3047C56.5107 16.9057 56.7198 16.8884 56.9188 16.8293C57.1178 16.7701 57.3024 16.6704 57.4609 16.5363C57.6195 16.4023 57.7485 16.2368 57.84 16.0505C57.9314 15.8641 57.9832 15.6607 57.9922 15.4533C57.9922 14.6279 57.3711 14.0947 56.3179 14.0947C56.1068 14.0652 55.892 14.0783 55.686 14.1332C55.4801 14.1881 55.2873 14.2837 55.1189 14.4144C54.9505 14.5451 54.8101 14.7082 54.7058 14.894C54.6015 15.0799 54.5355 15.2848 54.5117 15.4965H53.1977C53.2203 15.1121 53.3218 14.7364 53.4959 14.3929C53.67 14.0494 53.913 13.7454 54.2097 13.4998C54.5063 13.2543 54.8504 13.0724 55.2204 12.9656C55.5904 12.8588 55.9784 12.8292 56.3603 12.8789C58.1225 12.8789 59.3633 13.8654 59.3633 15.2856C59.3674 15.7614 59.2083 16.2242 58.9123 16.5967C58.6164 16.9693 58.2017 17.2291 57.7373 17.3327V17.4382C58.2878 17.4626 58.8062 17.704 59.1793 18.1096C59.5523 18.5151 59.7496 19.0519 59.728 19.6025C59.6873 19.9983 59.5679 20.3821 59.377 20.7312C59.186 21.0803 58.9273 21.3878 58.616 21.6356C58.3046 21.8834 57.947 22.0666 57.5639 22.1744C57.1809 22.2822 56.7801 22.3125 56.3853 22.2634C55.9895 22.3173 55.587 22.2911 55.2017 22.1861C54.8163 22.0812 54.456 21.8997 54.1423 21.6526C53.8286 21.4054 53.5679 21.0977 53.3756 20.7476C53.1834 20.3975 53.0636 20.0123 53.0234 19.615H54.3579C54.4385 20.4712 55.2251 21.0235 56.3853 21.0235C57.5454 21.0235 58.3027 20.4031 58.3027 19.5286C58.3027 18.6416 57.5894 18.0952 56.3428 18.0952H55.1079V16.8801Z" fill="black"/>
<path d="M61.2441 20.1362C61.2441 18.9204 62.1509 18.2195 63.7563 18.1199L65.5859 18.0144V17.4314C65.5859 16.718 65.1157 16.3152 64.2031 16.3152C63.459 16.3152 62.9448 16.5884 62.7954 17.0659H61.5049C61.6411 15.9058 62.7339 15.1616 64.2661 15.1616C65.9595 15.1616 66.9146 16.0046 66.9146 17.4314V22.0464H65.6299V21.0972H65.5244C65.3103 21.4377 65.0097 21.7152 64.6533 21.9015C64.2969 22.0879 63.8974 22.1762 63.4956 22.1577C63.2121 22.1872 62.9255 22.1569 62.6543 22.0689C62.3832 21.9808 62.1335 21.8369 61.9214 21.6465C61.7093 21.456 61.5394 21.2232 61.4227 20.9631C61.3061 20.703 61.2453 20.4213 61.2441 20.1362V20.1362ZM65.5859 19.5591V18.9944L63.9365 19.0998C63.0063 19.1621 62.5844 19.4785 62.5844 20.074C62.5844 20.6819 63.1117 21.0356 63.8369 21.0356C64.0494 21.0571 64.264 21.0357 64.468 20.9726C64.672 20.9094 64.8613 20.8059 65.0244 20.6681C65.1876 20.5304 65.3214 20.3612 65.4179 20.1707C65.5144 19.9801 65.5715 19.7721 65.5859 19.5591V19.5591Z" fill="black"/>
<path d="M70.4521 16.4141V22.0464H69.1191V15.292H73.5665V16.414L70.4521 16.4141Z" fill="black"/>
<path d="M81.6436 18.6662C81.6436 20.8122 80.5581 22.1577 78.853 22.1577C78.4345 22.1862 78.0165 22.0946 77.6482 21.8937C77.28 21.6927 76.9768 21.3906 76.7744 21.0231H76.6689V24.2919H75.3359V15.2919H76.6191V16.4082H76.7188C76.9248 16.0279 77.2319 15.7119 77.6062 15.4951C77.9805 15.2783 78.4074 15.1693 78.8399 15.1799C80.5581 15.1799 81.6436 16.5195 81.6436 18.6662ZM80.2725 18.6662C80.2725 17.2394 79.5972 16.3774 78.4678 16.3774C77.3458 16.3774 76.6441 17.2577 76.6441 18.6721C76.6441 20.0798 77.3457 20.9609 78.4619 20.9609C79.5972 20.9609 80.2725 20.0988 80.2725 18.6662Z" fill="black"/>
<path d="M83.419 24.4656V23.3179C83.5632 23.3362 83.7086 23.3445 83.854 23.3428C84.138 23.3638 84.4198 23.2792 84.6452 23.1053C84.8707 22.9313 85.024 22.6802 85.0757 22.4002L85.1753 22.0713L82.7305 15.292H84.1821L85.8755 20.657H85.981L87.6685 15.292H89.0821L86.564 22.3255C85.9869 23.969 85.3482 24.4964 83.9713 24.4964C83.8599 24.4963 83.5435 24.4839 83.419 24.4656Z" fill="black"/>
<path d="M90.123 20.1298H91.4502C91.5806 20.7253 92.1387 21.0358 92.9194 21.0358C93.8071 21.0358 94.3521 20.6447 94.3521 20.0368C94.3521 19.3857 93.8628 19.0751 92.9194 19.0751H91.9087V18.0395H92.9019C93.7075 18.0395 94.1177 17.7297 94.1177 17.165C94.1177 16.6691 93.7207 16.2905 92.9019 16.2905C92.1562 16.2905 91.6113 16.6069 91.5249 17.1401H90.2402C90.3363 16.5274 90.6689 15.9769 91.1667 15.6069C91.6644 15.237 92.2875 15.0771 92.9019 15.1618C94.5073 15.1618 95.4258 15.8877 95.4258 17.0288C95.4333 17.3465 95.3315 17.6572 95.1374 17.9089C94.9432 18.1606 94.6686 18.3381 94.3594 18.4116V18.5171C94.7275 18.5645 95.0655 18.7455 95.309 19.0257C95.5526 19.3058 95.6848 19.6656 95.6807 20.0368C95.6807 21.3208 94.5879 22.1704 92.9194 22.1704C91.4443 22.1703 90.2461 21.4943 90.123 20.1298Z" fill="black"/>
<path d="M97.5996 22.0464V15.292H98.9209V19.9378H99.0264L102.139 15.292H103.46V22.0464H102.139V17.3758H102.04L98.9209 22.0464L97.5996 22.0464Z" fill="black"/>
<path d="M110.739 16.4145H108.612V22.0468H107.277V16.4145H105.15V15.2925H110.739V16.4145Z" fill="black"/>
<path d="M117.919 20.2228C117.737 20.8401 117.345 21.3739 116.809 21.7311C116.274 22.0882 115.63 22.246 114.991 22.1769C114.546 22.1886 114.103 22.1034 113.695 21.9271C113.286 21.7508 112.921 21.4877 112.624 21.156C112.327 20.8243 112.106 20.4319 111.976 20.0062C111.846 19.5804 111.81 19.1315 111.871 18.6905C111.811 18.2482 111.848 17.7983 111.978 17.3713C112.107 16.9443 112.327 16.5501 112.623 16.2155C112.918 15.8809 113.282 15.6137 113.689 15.4319C114.097 15.2501 114.539 15.1579 114.985 15.1617C116.864 15.1617 118 16.4457 118 18.5667V19.0319H113.23V19.1066C113.209 19.3545 113.24 19.6041 113.321 19.8393C113.402 20.0746 113.531 20.2902 113.701 20.4725C113.87 20.6547 114.076 20.7995 114.305 20.8975C114.533 20.9955 114.78 21.0446 115.029 21.0416C115.347 21.0797 115.67 21.0222 115.956 20.8764C116.242 20.7306 116.478 20.503 116.634 20.2227L117.919 20.2228ZM113.23 18.046H116.64C116.657 17.8194 116.626 17.5919 116.55 17.3779C116.474 17.1639 116.353 16.9682 116.197 16.8034C116.04 16.6386 115.851 16.5084 115.642 16.4211C115.432 16.3337 115.206 16.2912 114.979 16.2963C114.748 16.2931 114.519 16.3363 114.306 16.4231C114.092 16.5099 113.898 16.6387 113.735 16.8018C113.572 16.9649 113.443 17.1591 113.357 17.3728C113.27 17.5865 113.227 17.8154 113.23 18.046H113.23Z" fill="black"/>
<path d="M123.57 15.292H126.616C127.937 15.292 128.712 15.9614 128.712 17.0095C128.714 17.3421 128.602 17.6652 128.394 17.925C128.186 18.1847 127.896 18.3652 127.571 18.4362V18.5417C127.965 18.5666 128.335 18.7421 128.604 19.0319C128.873 19.3217 129.02 19.7036 129.015 20.0988C129.015 21.2773 128.129 22.0464 126.646 22.0464H123.57V15.292ZM124.892 16.3152V18.0642H126.213C127.019 18.0642 127.404 17.7544 127.404 17.1831C127.404 16.6565 127.068 16.3152 126.361 16.3152L124.892 16.3152ZM124.892 19.0442V21.0232H126.472C127.26 21.0232 127.682 20.6753 127.682 20.0366C127.682 19.3606 127.205 19.0442 126.305 19.0442L124.892 19.0442Z" fill="black"/>
</g>
<defs>
<clipPath id="clip0">
<rect width="179" height="60" fill="white"/>
</clipPath>
</defs>
</svg>
