<svg width="116" height="39" viewBox="0 0 116 39" fill="none" xmlns="http://www.w3.org/2000/svg">
<path d="M28.72 30.46H13.64L18.944 25.624C23.52 21.568 26.848 18.136 26.848 12.416C26.848 5.292 21.96 0.455997 13.38 0.455997C4.904 0.455997 0.224 6.02 0.224 12.988V15.224H8.648V13.248C8.648 10.284 10.416 8.152 13.38 8.152C16.396 8.152 18.112 10.076 18.112 12.728C18.112 15.38 16.656 17.2 13.848 19.852L0.12 32.28V38H28.72V30.46ZM45.9113 0.403997C37.1233 0.403997 31.7153 5.656 31.7153 14.184V24.896C31.7153 33.528 37.1753 38.676 45.9113 38.676C54.6993 38.676 60.1073 33.528 60.1073 24.896V14.184C60.1073 5.656 54.7513 0.403997 45.9113 0.403997ZM45.9113 30.876C42.2193 30.876 40.3473 28.276 40.3473 24.636V14.444C40.3473 10.804 42.2193 8.204 45.9113 8.204C49.6553 8.204 51.4753 10.804 51.4753 14.444V24.636C51.4753 28.276 49.6553 30.876 45.9113 30.876ZM81.1787 38V0.923997H74.7307L63.5507 7.58V15.64L72.5467 10.596V38H81.1787ZM101.598 0.403997C92.81 0.403997 87.402 5.656 87.402 14.184V24.896C87.402 33.528 92.862 38.676 101.598 38.676C110.386 38.676 115.794 33.528 115.794 24.896V14.184C115.794 5.656 110.438 0.403997 101.598 0.403997ZM101.598 30.876C97.906 30.876 96.034 28.276 96.034 24.636V14.444C96.034 10.804 97.906 8.204 101.598 8.204C105.342 8.204 107.162 10.804 107.162 14.444V24.636C107.162 28.276 105.342 30.876 101.598 30.876Z" fill="#DE8675"/>
</svg>
