<svg width="116" height="39" viewBox="0 0 116 39" fill="none" xmlns="http://www.w3.org/2000/svg">
<path d="M28.72 30.46H13.64L18.944 25.624C23.52 21.568 26.848 18.136 26.848 12.416C26.848 5.292 21.96 0.455997 13.38 0.455997C4.904 0.455997 0.224 6.02 0.224 12.988V15.224H8.648V13.248C8.648 10.284 10.416 8.152 13.38 8.152C16.396 8.152 18.112 10.076 18.112 12.728C18.112 15.38 16.656 17.2 13.848 19.852L0.12 32.28V38H28.72V30.46ZM45.9113 0.403997C37.1233 0.403997 31.7153 5.656 31.7153 14.184V24.896C31.7153 33.528 37.1753 38.676 45.9113 38.676C54.6993 38.676 60.1073 33.528 60.1073 24.896V14.184C60.1073 5.656 54.7513 0.403997 45.9113 0.403997ZM45.9113 30.876C42.2193 30.876 40.3473 28.276 40.3473 24.636V14.444C40.3473 10.804 42.2193 8.204 45.9113 8.204C49.6553 8.204 51.4753 10.804 51.4753 14.444V24.636C51.4753 28.276 49.6553 30.876 45.9113 30.876ZM81.1787 38V0.923997H74.7307L63.5507 7.58V15.64L72.5467 10.596V38H81.1787ZM115.378 25.208C115.378 18.032 110.854 13.092 104.042 13.092C101.754 13.092 100.142 13.716 98.998 14.496L109.554 1.08H99.986L92.29 10.908C88.494 15.744 86.154 19.436 86.154 25.26C86.154 33.008 91.77 38.624 100.766 38.624C109.814 38.624 115.378 32.904 115.378 25.208ZM106.746 25.208C106.746 28.536 104.51 31.032 100.766 31.032C97.074 31.032 94.786 28.536 94.786 25.26C94.786 21.828 97.178 19.332 100.766 19.332C104.51 19.332 106.746 21.828 106.746 25.208Z" fill="#6A8A7A"/>
</svg>
