<svg width="127" height="39" viewBox="0 0 127 39" fill="none" xmlns="http://www.w3.org/2000/svg">
<path d="M28.72 30.46H13.64L18.944 25.624C23.52 21.568 26.848 18.136 26.848 12.416C26.848 5.292 21.96 0.455997 13.38 0.455997C4.904 0.455997 0.224 6.02 0.224 12.988V15.224H8.648V13.248C8.648 10.284 10.416 8.152 13.38 8.152C16.396 8.152 18.112 10.076 18.112 12.728C18.112 15.38 16.656 17.2 13.848 19.852L0.12 32.28V38H28.72V30.46ZM45.9113 0.403997C37.1233 0.403997 31.7153 5.656 31.7153 14.184V24.896C31.7153 33.528 37.1753 38.676 45.9113 38.676C54.6993 38.676 60.1073 33.528 60.1073 24.896V14.184C60.1073 5.656 54.7513 0.403997 45.9113 0.403997ZM45.9113 30.876C42.2193 30.876 40.3473 28.276 40.3473 24.636V14.444C40.3473 10.804 42.2193 8.204 45.9113 8.204C49.6553 8.204 51.4753 10.804 51.4753 14.444V24.636C51.4753 28.276 49.6553 30.876 45.9113 30.876ZM79.6707 0.403997C70.8827 0.403997 65.4747 5.656 65.4747 14.184V24.896C65.4747 33.528 70.9347 38.676 79.6707 38.676C88.4587 38.676 93.8667 33.528 93.8667 24.896V14.184C93.8667 5.656 88.5107 0.403997 79.6707 0.403997ZM79.6707 30.876C75.9787 30.876 74.1067 28.276 74.1067 24.636V14.444C74.1067 10.804 75.9787 8.204 79.6707 8.204C83.4147 8.204 85.2347 10.804 85.2347 14.444V24.636C85.2347 28.276 83.4147 30.876 79.6707 30.876ZM107.346 22.296C107.762 21.568 109.062 19.592 112.338 19.592C115.822 19.592 118.058 21.776 118.058 25.208V25.364C118.058 28.536 115.718 30.98 112.338 30.98C108.438 30.98 106.878 28.276 106.618 26.612H97.882C98.038 32.228 102.25 38.624 112.338 38.624C121.438 38.624 126.742 32.904 126.742 25.26V25.052C126.742 17.252 121.49 12.52 114.886 12.52C111.35 12.52 108.958 13.924 107.762 15.276V8.152H125.338V1.08H99.65V22.296H107.346Z" fill="#CEA17A"/>
</svg>
