<svg width="321" height="384" viewBox="0 0 321 384" fill="none" xmlns="http://www.w3.org/2000/svg">
<path d="M160.989 384C169.821 384 176.989 376.832 176.989 368L176.989 48.808L293.405 171.032C299.493 177.424 309.613 177.688 316.029 171.584C322.429 165.488 322.677 155.368 316.581 148.968L183.621 9.376C177.573 3.32799 169.541 -1.32406e-05 160.989 -1.39882e-05C152.445 -1.47352e-05 144.405 3.32799 138.093 9.65599L5.40505 148.968C-0.690951 155.368 -0.43495 165.488 5.95705 171.584C12.349 177.688 22.4771 177.432 28.5731 171.032L144.989 48.296L144.989 368C144.989 376.832 152.157 384 160.989 384Z" fill="white"/>
</svg>
