<svg width="203" height="60" viewBox="0 0 203 60" fill="none" xmlns="http://www.w3.org/2000/svg">
<path d="M195 59.5H7.5C3.57614 59.5 0.5 56.4239 0.5 52.5V7.5C0.5 3.57614 3.57614 0.5 7.5 0.5H195C198.924 0.5 202 3.57614 202 7.5V52.5C202 56.2804 198.917 59.5 195 59.5Z" stroke="black"/>
<path d="M102.148 32.7004C98.5484 32.7004 95.6984 35.4004 95.6984 39.1504C95.6984 42.7504 98.5484 45.6004 102.148 45.6004C105.748 45.6004 108.598 42.9004 108.598 39.1504C108.598 35.2504 105.748 32.7004 102.148 32.7004ZM102.148 42.9004C100.198 42.9004 98.5484 41.2504 98.5484 39.0004C98.5484 36.7504 100.198 35.1004 102.148 35.1004C104.098 35.1004 105.748 36.6004 105.748 39.0004C105.748 41.2504 104.098 42.9004 102.148 42.9004ZM88.1984 32.7004C84.5984 32.7004 81.7484 35.4004 81.7484 39.1504C81.7484 42.7504 84.5984 45.6004 88.1984 45.6004C91.7984 45.6004 94.6484 42.9004 94.6484 39.1504C94.6484 35.2504 91.7984 32.7004 88.1984 32.7004ZM88.1984 42.9004C86.2484 42.9004 84.5984 41.2504 84.5984 39.0004C84.5984 36.7504 86.2484 35.1004 88.1984 35.1004C90.1484 35.1004 91.7984 36.6004 91.7984 39.0004C91.7984 41.2504 90.1484 42.9004 88.1984 42.9004ZM71.5484 34.6504V37.3504H77.9984C77.8484 38.8504 77.2484 40.0504 76.4984 40.8004C75.5984 41.7004 74.0984 42.7504 71.5484 42.7504C67.4984 42.7504 64.4984 39.6004 64.4984 35.5504C64.4984 31.5004 67.6484 28.3504 71.5484 28.3504C73.6484 28.3504 75.2984 29.2504 76.4984 30.3004L78.4484 28.3504C76.7984 26.8504 74.6984 25.6504 71.6984 25.6504C66.2984 25.6504 61.6484 30.1504 61.6484 35.5504C61.6484 40.9504 66.2984 45.4504 71.6984 45.4504C74.6984 45.4504 76.7984 44.5504 78.5984 42.6004C80.3984 40.8004 80.9984 38.2504 80.9984 36.3004C80.9984 35.7004 80.9984 35.1004 80.8484 34.6504H71.5484V34.6504ZM139.648 36.7504C139.048 35.2504 137.548 32.7004 134.248 32.7004C130.948 32.7004 128.248 35.2504 128.248 39.1504C128.248 42.7504 130.948 45.6004 134.548 45.6004C137.398 45.6004 139.198 43.8004 139.798 42.7504L137.698 41.2504C136.948 42.3004 136.048 43.0504 134.548 43.0504C133.048 43.0504 132.148 42.4504 131.398 41.1004L139.948 37.5004L139.648 36.7504ZM130.948 38.8504C130.948 36.4504 132.898 35.1004 134.248 35.1004C135.298 35.1004 136.348 35.7004 136.648 36.4504L130.948 38.8504ZM123.898 45.0004H126.748V26.2504H123.898V45.0004ZM119.398 34.0504C118.648 33.3004 117.448 32.5504 115.948 32.5504C112.798 32.5504 109.798 35.4004 109.798 39.0004C109.798 42.6004 112.648 45.3004 115.948 45.3004C117.448 45.3004 118.648 44.5504 119.248 43.8004H119.398V44.7004C119.398 47.1004 118.048 48.4504 115.948 48.4504C114.298 48.4504 113.098 47.2504 112.798 46.2004L110.398 47.2504C111.148 48.9004 112.948 51.0004 116.098 51.0004C119.398 51.0004 122.098 49.0504 122.098 44.4004V33.0004H119.398V34.0504V34.0504ZM116.098 42.9004C114.148 42.9004 112.498 41.2504 112.498 39.0004C112.498 36.7504 114.148 35.1004 116.098 35.1004C118.048 35.1004 119.548 36.7504 119.548 39.0004C119.548 41.2504 118.048 42.9004 116.098 42.9004ZM152.698 26.2504H145.948V45.0004H148.798V37.9504H152.698C155.848 37.9504 158.848 35.7004 158.848 32.1004C158.848 28.5004 155.848 26.2504 152.698 26.2504ZM152.848 35.2504H148.798V28.8004H152.848C154.948 28.8004 156.148 30.6004 156.148 31.9504C155.998 33.6004 154.798 35.2504 152.848 35.2504ZM170.098 32.5504C167.998 32.5504 165.898 33.4504 165.148 35.4004L167.698 36.4504C168.298 35.4004 169.198 35.1004 170.248 35.1004C171.748 35.1004 173.098 36.0004 173.248 37.5004V37.6504C172.798 37.3504 171.598 36.9004 170.398 36.9004C167.698 36.9004 164.998 38.4004 164.998 41.1004C164.998 43.6504 167.248 45.3004 169.648 45.3004C171.598 45.3004 172.498 44.4004 173.248 43.5004H173.398V45.0004H176.098V37.8004C175.798 34.5004 173.248 32.5504 170.098 32.5504ZM169.798 42.9004C168.898 42.9004 167.548 42.4504 167.548 41.2504C167.548 39.7504 169.198 39.3004 170.548 39.3004C171.748 39.3004 172.348 39.6004 173.098 39.9004C172.798 41.7004 171.298 42.9004 169.798 42.9004ZM185.548 33.0004L182.398 41.1004H182.248L178.948 33.0004H175.948L180.898 44.4004L178.048 50.7004H180.898L188.548 33.0004H185.548ZM160.348 45.0004H163.198V26.2504H160.348V45.0004Z" fill="black"/>
<path d="M31.645 30.0002L15.3962 46.249C15.2125 45.864 15.125 45.444 15.125 45.0065V14.994C15.125 14.5565 15.2125 14.1365 15.3962 13.7515L31.645 30.0002Z" fill="black"/>
<path d="M33.4994 31.855L38.9331 37.2887L19.6394 47.7012C19.1844 47.9462 18.6856 48.0687 18.1869 48.0687C17.9156 48.0687 17.6531 48.0337 17.3906 47.9637L33.4994 31.855Z" fill="black"/>
<path d="M33.5004 28.1447L17.4004 12.0447C18.1441 11.8347 18.9404 11.9222 19.6404 12.2984L38.9341 22.7109L33.5004 28.1447Z" fill="black"/>
<path d="M49.0667 30.0001C49.0667 31.1288 48.4455 32.1613 47.4567 32.6951L41.3492 35.9938L35.3555 30.0001L41.3492 24.0063L47.4567 27.3051C48.4455 27.8388 49.0667 28.8713 49.0667 30.0001Z" fill="black"/>
<path d="M63.1496 21.45H62.0996V18.45H62.9996C63.7496 17.85 64.1996 16.65 64.1996 15V10.5H70.1996V18.45H71.2496V21.45H70.1996V19.5H63.2996V21.45H63.1496ZM65.2496 15C65.2496 16.35 64.9496 17.55 64.3496 18.45H68.8496V11.7H65.0996V15H65.2496Z" fill="black" stroke="white" stroke-width="0.2" stroke-miterlimit="10"/>
<path d="M80.0984 18.3001C79.1984 19.2001 78.1484 19.6501 76.7984 19.6501C75.4484 19.6501 74.3984 19.2001 73.4984 18.3001C72.5984 17.4001 72.1484 16.3501 72.1484 15.0001C72.1484 13.6501 72.5984 12.6001 73.4984 11.7001C74.3984 10.8001 75.4484 10.3501 76.7984 10.3501C78.1484 10.3501 79.1984 10.8001 80.0984 11.7001C80.9984 12.6001 81.4484 13.6501 81.4484 15.0001C81.4484 16.3501 80.9984 17.4001 80.0984 18.3001ZM74.3984 17.5501C74.9984 18.1501 75.8984 18.6001 76.7984 18.6001C77.6984 18.6001 78.5984 18.3001 79.1984 17.5501C79.7984 16.9501 80.2484 16.0501 80.2484 15.0001C80.2484 13.9501 79.9484 13.0501 79.1984 12.4501C78.5984 11.8501 77.6984 11.4001 76.7984 11.4001C75.8984 11.4001 74.9984 11.7001 74.3984 12.4501C73.7984 13.0501 73.3484 13.9501 73.3484 15.0001C73.3484 16.0501 73.6484 16.9501 74.3984 17.5501Z" fill="black" stroke="white" stroke-width="0.2" stroke-miterlimit="10"/>
<path d="M87.2984 19.6501C85.9484 19.6501 84.8984 19.2001 83.9984 18.3001C83.0984 17.4001 82.6484 16.3501 82.6484 15.0001C82.6484 13.6501 83.0984 12.6001 83.9984 11.7001C84.8984 10.8001 85.9484 10.3501 87.2984 10.3501C88.6484 10.3501 89.6984 10.8001 90.5984 11.8501L89.8484 12.6001C89.2484 11.8501 88.3484 11.4001 87.2984 11.4001C86.2484 11.4001 85.4984 11.7001 84.7484 12.4501C83.9984 13.0501 83.6984 13.9501 83.6984 15.0001C83.6984 16.0501 83.9984 16.9501 84.7484 17.5501C85.3484 18.1501 86.2484 18.6001 87.2984 18.6001C88.3484 18.6001 89.2484 18.1501 89.9984 17.2501L90.7484 18.0001C90.2984 18.4501 89.8484 18.9001 89.2484 19.2001C88.6484 19.5001 88.0484 19.6501 87.2984 19.6501Z" fill="black" stroke="white" stroke-width="0.2" stroke-miterlimit="10"/>
<path d="M95.5508 19.5H94.3508V11.55H91.8008V10.5H97.9508V11.55H95.4008V19.5H95.5508Z" fill="black" stroke="white" stroke-width="0.2" stroke-miterlimit="10"/>
<path d="M105.899 10.5L102.449 18.15C101.999 19.2 101.249 19.8 100.349 19.8C100.049 19.8 99.7492 19.8 99.4492 19.65L99.7492 18.6C99.8992 18.75 100.199 18.75 100.349 18.75C100.649 18.75 100.799 18.75 100.949 18.6C101.099 18.45 101.249 18.3 101.399 18L101.699 17.25L98.6992 10.65H100.049L102.299 15.75L104.399 10.65H105.899V10.5Z" fill="black" stroke="white" stroke-width="0.2" stroke-miterlimit="10"/>
<path d="M107.25 19.5V10.5H113.7V19.5H112.5V11.55H108.3V19.5H107.25Z" fill="black" stroke="white" stroke-width="0.2" stroke-miterlimit="10"/>
<path d="M115.801 19.5V10.5H117.001V14.4H121.501V10.5H122.701V19.5H121.501V15.45H117.001V19.5H115.801Z" fill="black" stroke="white" stroke-width="0.2" stroke-miterlimit="10"/>
<path d="M132.149 18.3001C131.249 19.2001 130.199 19.6501 128.849 19.6501C127.499 19.6501 126.449 19.2001 125.549 18.3001C124.649 17.4001 124.199 16.3501 124.199 15.0001C124.199 13.6501 124.649 12.6001 125.549 11.7001C126.449 10.8001 127.499 10.3501 128.849 10.3501C130.199 10.3501 131.249 10.8001 132.149 11.7001C133.049 12.6001 133.499 13.6501 133.499 15.0001C133.349 16.3501 132.899 17.4001 132.149 18.3001ZM126.299 17.5501C126.899 18.1501 127.799 18.6001 128.699 18.6001C129.599 18.6001 130.499 18.3001 131.099 17.5501C131.699 16.9501 132.149 16.0501 132.149 15.0001C132.149 13.9501 131.849 13.0501 131.099 12.4501C130.499 11.8501 129.599 11.4001 128.699 11.4001C127.799 11.4001 126.899 11.7001 126.299 12.4501C125.699 13.0501 125.249 13.9501 125.249 15.0001C125.249 16.0501 125.699 16.9501 126.299 17.5501Z" fill="black" stroke="white" stroke-width="0.2" stroke-miterlimit="10"/>
<path d="M138.148 19.5V10.5H141.448C142.198 10.5 142.798 10.8 143.248 11.25C143.698 11.7 143.998 12.3 143.998 13.05C143.998 13.5 143.848 13.8 143.698 14.25C143.548 14.55 143.248 14.85 142.798 15C143.248 15.15 143.548 15.45 143.848 15.75C144.148 16.05 144.298 16.5 144.298 17.1C144.298 17.85 143.998 18.45 143.548 18.9C142.948 19.35 142.348 19.65 141.598 19.65H138.148V19.5ZM139.348 14.4H141.448C141.898 14.4 142.198 14.25 142.498 13.95C142.798 13.65 142.948 13.35 142.948 13.05C142.948 12.75 142.798 12.45 142.498 12.15C142.198 11.85 141.898 11.7 141.448 11.7H139.348V14.4ZM139.348 18.45H141.748C142.198 18.45 142.498 18.3 142.798 18C143.098 17.7 143.248 17.4 143.248 16.95C143.248 16.65 143.098 16.2 142.798 15.9C142.498 15.6 142.198 15.45 141.748 15.45H139.498V18.45H139.348Z" fill="black" stroke="white" stroke-width="0.2" stroke-miterlimit="10"/>
</svg>
