<svg width="21" height="20" viewBox="0 0 21 20" fill="none" xmlns="http://www.w3.org/2000/svg">
<path fill-rule="evenodd" clip-rule="evenodd" d="M6.49929 0.0633122C7.56055 0.0157874 7.89984 0.00390625 10.5984 0.00390625C13.2969 0.00390625 13.6362 0.0157874 14.7014 0.0593518C15.7627 0.106877 16.4846 0.277174 17.1159 0.522718C17.7668 0.780144 18.3231 1.12074 18.8755 1.67519C19.4278 2.22965 19.771 2.7841 20.0235 3.44153C20.2681 4.07915 20.4378 4.80391 20.4851 5.86529C20.5324 6.93064 20.5443 7.26727 20.5443 9.98014C20.5443 12.693 20.5324 13.0296 20.4851 14.095C20.4378 15.1603 20.2681 15.8851 20.0235 16.5188C19.7671 17.1722 19.4278 17.7306 18.8755 18.2851C18.3231 18.8396 17.7708 19.1841 17.1159 19.4376C16.4807 19.6831 15.7587 19.8534 14.7014 19.9009C13.6401 19.9485 13.3048 19.9603 10.6023 19.9603C7.89984 19.9603 7.5645 19.9485 6.50324 19.9009C5.44197 19.8534 4.72 19.6831 4.08876 19.4376C3.4378 19.1801 2.88152 18.8396 2.32919 18.2851C1.77686 17.7306 1.43363 17.1762 1.18113 16.5188C0.936528 15.8811 0.766883 15.1564 0.719541 14.095C0.672198 13.0296 0.660362 12.6891 0.660362 9.98014C0.660362 7.27123 0.672198 6.93064 0.719541 5.86925C0.766883 4.80391 0.936528 4.07915 1.18113 3.44549C1.43757 2.79203 1.77686 2.23361 2.32919 1.67915C2.88152 1.1247 3.43385 0.780144 4.08876 0.526679C4.72 0.281134 5.44197 0.110837 6.49929 0.0633122ZM14.6135 1.86116C13.5641 1.81364 13.2524 1.80176 10.5973 1.80176C7.94216 1.80176 7.63048 1.80968 6.58105 1.86116C5.61053 1.90473 5.08581 2.07106 4.73469 2.20572C4.26915 2.38394 3.93776 2.60176 3.59058 2.95027C3.2434 3.29879 3.03035 3.63146 2.84887 4.09879C2.71079 4.45126 2.54904 4.978 2.50564 5.95225C2.4583 7.00572 2.44646 7.31859 2.44646 9.98394C2.44646 12.6493 2.4583 12.9622 2.50564 14.0156C2.54904 14.9899 2.71474 15.5166 2.84887 15.8691C3.02641 16.3364 3.2434 16.6691 3.59058 17.0176C3.93776 17.3661 4.26915 17.58 4.73469 17.7622C5.08581 17.9008 5.61053 18.0631 6.58105 18.1067C7.63048 18.1542 7.94216 18.1661 10.5973 18.1661C13.2524 18.1661 13.5641 18.1542 14.6135 18.1067C15.5841 18.0631 16.1088 17.8968 16.4599 17.7622C16.9254 17.5839 17.2568 17.3661 17.604 17.0176C17.9512 16.6691 18.1642 16.3364 18.3457 15.8691C18.4838 15.5166 18.6455 14.9899 18.6889 14.0156C18.7363 12.9622 18.7481 12.6493 18.7481 9.98394C18.7481 7.31859 18.7363 7.00572 18.6889 5.95225C18.6455 4.978 18.4798 4.45126 18.3457 4.09879C18.1682 3.63146 17.9512 3.29879 17.604 2.95027C17.2568 2.60176 16.9254 2.3879 16.4599 2.20572C16.1088 2.0671 15.5841 1.90473 14.6135 1.86116Z" fill="white"/>
<path fill-rule="evenodd" clip-rule="evenodd" d="M5.4963 9.98022C5.4963 7.14854 7.78453 4.85547 10.6014 4.85547C13.4183 4.85547 15.7065 7.1525 15.7065 9.98022C15.7065 12.8079 13.4183 15.105 10.6014 15.105C7.78453 15.105 5.4963 12.8119 5.4963 9.98022ZM7.286 9.98005C7.286 11.8177 8.7694 13.3068 10.6 13.3068C12.4306 13.3068 13.914 11.8177 13.914 9.98005C13.914 8.14243 12.4306 6.65332 10.6 6.65332C8.7694 6.65332 7.286 8.14243 7.286 9.98005Z" fill="white"/>
<path d="M15.9026 5.8496C16.5606 5.8496 17.0941 5.31411 17.0941 4.65356C17.0941 3.993 16.5606 3.45752 15.9026 3.45752C15.2446 3.45752 14.7111 3.993 14.7111 4.65356C14.7111 5.31411 15.2446 5.8496 15.9026 5.8496Z" fill="white"/>
</svg>
