<svg width="22" height="18" viewBox="0 0 22 18" fill="none" xmlns="http://www.w3.org/2000/svg">
<path fill-rule="evenodd" clip-rule="evenodd" d="M10.7128 14.1548C10.9217 13.9524 11.1312 13.7496 11.3412 13.5458H11.3427C11.372 13.5669 11.4004 13.5868 11.428 13.6061C11.4744 13.6385 11.5188 13.6695 11.5619 13.703C12.1075 14.1041 12.6526 14.5055 13.1978 14.9069C14.126 15.5903 15.0542 16.2737 15.9842 16.9558C16.8342 17.5797 17.5793 17.3 17.8126 16.277L17.8173 16.2518C18.1698 14.5951 18.5226 12.9389 18.8754 11.2827C19.4749 8.46805 20.0744 5.6537 20.6726 2.8381C20.7015 2.69993 20.7324 2.56185 20.7632 2.42373C20.8609 1.98692 20.9586 1.5497 20.9966 1.10796C21.0733 0.224812 20.4362 -0.213616 19.6144 0.102241C16.9034 1.14626 14.1917 2.18903 11.4803 3.23173C9.9065 3.83694 8.33276 4.44213 6.75923 5.04753C6.29367 5.22658 5.8279 5.4051 5.36213 5.58361C4.04568 6.08818 2.72931 6.59271 1.41806 7.10924C1.09715 7.23653 0.784066 7.42038 0.519512 7.64038C0.233043 7.87924 0.278439 8.20767 0.591521 8.41667C0.777281 8.53257 0.977943 8.62245 1.18794 8.68381C2.58827 9.12748 3.9909 9.56382 5.39576 9.99281C5.55742 10.0282 5.6846 10.1534 5.72293 10.315C6.03777 11.294 6.35614 12.2721 6.67453 13.2503C6.95611 14.1154 7.2377 14.9805 7.51688 15.8464C7.59829 16.0978 7.747 16.2157 8.01312 16.2298C8.40447 16.2518 8.71129 16.1041 8.98367 15.837C9.5558 15.2753 10.1322 14.7171 10.7128 14.1548ZM8.10002 14.8653C8.09396 14.8904 8.08686 14.9197 8.07886 14.9556H8.07729C8.06019 14.913 8.04552 14.8779 8.0328 14.8475C8.01177 14.7972 7.99605 14.7596 7.98337 14.7214C7.86029 14.3448 7.73748 13.9679 7.61465 13.591C7.22354 12.3909 6.83233 11.1905 6.43205 9.99459C6.36474 9.79188 6.41327 9.70388 6.58233 9.59859C8.00396 8.70691 9.42472 7.81436 10.8455 6.92182C12.7398 5.73177 14.6341 4.54173 16.5305 3.35374C16.7026 3.24922 16.8887 3.16985 17.0831 3.11802C17.1405 3.1028 17.2106 3.13121 17.2806 3.15953C17.3117 3.17214 17.3428 3.18474 17.3727 3.19345C17.361 3.22124 17.3515 3.25161 17.3419 3.2821C17.3206 3.34989 17.2991 3.41832 17.2537 3.46059C16.8248 3.85466 16.3908 4.24432 15.9566 4.63409C15.7554 4.81475 15.5541 4.99544 15.3533 5.17659C14.803 5.67129 14.253 6.16609 13.703 6.66083C12.0221 8.173 10.3416 9.68474 8.65493 11.192C8.49665 11.3282 8.40288 11.525 8.39664 11.7342C8.32907 12.5545 8.25216 13.3727 8.17521 14.1914C8.15767 14.378 8.14013 14.5646 8.12269 14.7513C8.1196 14.7845 8.11174 14.8169 8.10002 14.8653Z" fill="white"/>
</svg>
