<svg width="21" height="18" viewBox="0 0 21 18" fill="none" xmlns="http://www.w3.org/2000/svg">
<path d="M20.4158 2.01493C19.7219 2.31716 18.929 2.6194 18.0369 2.72015C18.8298 2.21642 19.5237 1.3097 19.821 0.302239C19.0281 0.80597 18.136 1.20896 17.2439 1.3097C16.55 0.503731 15.4597 0 14.2703 0C11.9905 0 10.2063 1.91418 10.2063 4.33209C10.2063 4.63433 10.2063 5.03731 10.3054 5.33955C6.93528 5.13806 3.96164 3.42537 1.97922 0.80597C1.58273 1.41045 1.38449 2.21642 1.38449 2.92164C1.38449 4.43284 2.07834 5.74254 3.16867 6.54851C2.57395 6.54851 1.97922 6.34701 1.38449 6.04478C1.38449 6.04478 1.38449 6.04478 1.38449 6.14552C1.38449 8.26119 2.77219 9.97388 4.65549 10.3769C4.35813 10.4776 3.96164 10.5784 3.56516 10.5784C3.2678 10.5784 3.06955 10.5784 2.77219 10.4776C3.2678 12.1903 4.75461 13.3993 6.5388 13.5C5.1511 14.709 3.36692 15.3134 1.48361 15.3134C1.18625 15.3134 0.789765 15.3134 0.492401 15.2127C2.3757 16.4216 4.55637 17.1269 6.83616 17.1269C14.2703 17.1269 18.4333 10.5784 18.4333 4.83582C18.4333 4.63433 18.4333 4.43284 18.4333 4.23134C19.2263 3.62687 19.821 2.92164 20.4158 2.01493Z" fill="white"/>
</svg>
