<svg width="20" height="20" viewBox="0 0 20 20" fill="none" xmlns="http://www.w3.org/2000/svg">
<path fill-rule="evenodd" clip-rule="evenodd" d="M13.0198 0H6.90358C1.32166 0 0 1.32675 0 6.93013V13.0699C0 18.6733 1.32166 20 6.90358 20H13.0198C18.6017 20 19.9234 18.6733 19.9234 13.0699V6.93013C19.9234 1.32675 18.5876 0 13.0198 0ZM16.0862 14.2697H14.638C14.0897 14.2697 13.921 13.8321 12.9367 12.83C12.0791 11.9972 11.6994 11.8843 11.4885 11.8843C11.1933 11.8843 11.1089 11.969 11.1089 12.3783V13.691C11.1089 14.0438 10.9964 14.2555 10.0685 14.2555C8.53589 14.2555 6.8346 13.324 5.63948 11.5879C3.83976 9.04735 3.34766 7.14192 3.34766 6.74672C3.34766 6.535 3.43202 6.3374 3.83976 6.3374H5.28797C5.65354 6.3374 5.79414 6.50677 5.93474 6.90198C6.65181 8.97678 7.84694 10.7975 8.33904 10.7975C8.52183 10.7975 8.60619 10.7128 8.60619 10.2471V8.10169C8.54995 7.11369 8.02972 7.029 8.02972 6.67615C8.02972 6.50677 8.17032 6.3374 8.39528 6.3374H10.673C10.9824 6.3374 11.0949 6.50677 11.0949 6.87375V9.76718C11.0949 10.0777 11.2355 10.1906 11.3198 10.1906C11.5026 10.1906 11.6573 10.0777 11.9947 9.73896C13.0352 8.56747 13.7804 6.76083 13.7804 6.76083C13.8788 6.54912 14.0475 6.35152 14.4131 6.35152H15.8613C16.2971 6.35152 16.3956 6.57735 16.2971 6.88786C16.1144 7.73472 14.3428 10.2471 14.3428 10.2471C14.1881 10.5011 14.1319 10.614 14.3428 10.8963C14.4974 11.108 15.0036 11.5456 15.341 11.9408C15.9597 12.6465 16.4377 13.2393 16.5643 13.6486C16.7049 14.0579 16.494 14.2697 16.0862 14.2697Z" fill="white"/>
</svg>
